USFL
nRows=250
nColumns=2
inDegrees=yes
endheader
time	tib_ant_r	
2.76091	 52.267376	
2.79418	 52.190349	
2.82744	 52.253426	
2.8607	 52.310484	
2.89397	 52.304680	
2.92723	 52.352820	
2.9605	 52.327396	
2.99376	 52.357404	
3.02702	 52.356785	
3.06029	 52.349919	
3.09355	 52.360547	
3.12682	 52.356594	
3.16008	 52.363434	
3.19334	 52.376115	
3.22661	 52.376835	
3.25987	 52.373586	
3.29314	 52.377603	
3.3264	 52.337505	
3.35966	 52.348155	
3.39293	 52.309232	
3.42619	 52.272457	
3.45946	 52.281370	
3.49272	 52.275799	
3.52598	 52.263217	
3.55925	 52.313868	
3.59251	 52.334839	
3.62578	 52.320729	
3.65904	 52.264849	
3.6923	 52.225667	
3.72557	 52.251127	
3.75883	 52.253523	
3.7921	 52.248614	
3.82536	 52.273471	
3.85862	 52.257661	
3.89189	 52.299871	
3.92515	 52.349924	
3.95842	 52.379148	
3.99168	 52.347576	
4.02494	 52.333518	
4.05821	 52.343233	
4.09147	 52.329869	
4.12474	 52.365384	
4.158	 52.387370	
4.19126	 52.401575	
4.22453	 52.440457	
4.25779	 52.452787	
4.29106	 52.482076	
4.32432	 52.506181	
4.35758	 52.501208	
4.39085	 52.409149	
4.42411	 52.363346	
4.45738	 52.355852	
4.49064	 52.346384	
4.5239	 52.293775	
4.55717	 52.277367	
4.59043	 52.275724	
4.6237	 52.189933	
4.65696	 51.976905	
4.69022	 51.731504	
4.72349	 51.659198	
4.75675	 51.391785	
4.79002	 51.055516	
4.82328	 50.932016	
4.85654	 50.383354	
4.88981	 50.043290	
4.92307	 49.832414	
4.95634	 49.481090	
4.9896	 48.882877	
5.02286	 48.683539	
5.05613	 48.322276	
5.08939	 48.051464	
5.12266	 47.344523	
5.15592	 46.938514	
5.18918	 46.694678	
5.22245	 46.297632	
5.25571	 46.128424	
5.28898	 46.001174	
5.32224	 45.729605	
5.3555	 45.576260	
5.38877	 45.513402	
5.42203	 45.467463	
5.4553	 45.217093	
5.48856	 45.423386	
5.52182	 45.679828	
5.55509	 45.701304	
5.58835	 45.837946	
5.62162	 46.103086	
5.65488	 46.086710	
5.68814	 46.123286	
5.72141	 46.129802	
5.75467	 46.492791	
5.78794	 46.605752	
5.8212	 46.709891	
5.85446	 46.908498	
5.88773	 47.038931	
5.92099	 47.060639	
5.95426	 47.177249	
5.98752	 47.249461	
6.02078	 47.419242	
6.05405	 47.442099	
6.08731	 47.413831	
6.12058	 47.513846	
6.15384	 47.469819	
6.1871	 47.560219	
6.22037	 47.540830	
6.25363	 47.477976	
6.2869	 47.532556	
6.32016	 47.530229	
6.35342	 47.567002	
6.38669	 47.582879	
6.41995	 47.549593	
6.45322	 47.471091	
6.48648	 47.429917	
6.51974	 47.413595	
6.55301	 47.361413	
6.58627	 47.208492	
6.61954	 47.212982	
6.6528	 47.108624	
6.68606	 46.854706	
6.71933	 46.735327	
6.75259	 46.649369	
6.78586	 46.510014	
6.81912	 46.464959	
6.85238	 46.234298	
6.88565	 46.165369	
6.91891	 46.053090	
6.95218	 46.064517	
6.98544	 46.069265	
7.0187	 46.139261	
7.05197	 46.183235	
7.08523	 46.254253	
7.1185	 46.333302	
7.15176	 46.374156	
7.18502	 46.373887	
7.21829	 46.457155	
7.25155	 46.484262	
7.28482	 46.526394	
7.31808	 46.612023	
7.35134	 46.635165	
7.38461	 46.719718	
7.41787	 46.796112	
7.45114	 46.810052	
7.4844	 46.954597	
7.51766	 47.025587	
7.55093	 46.980744	
7.58419	 47.016688	
7.61746	 46.966369	
7.65072	 47.000107	
7.68398	 47.009035	
7.71725	 46.963622	
7.75051	 46.987328	
7.78378	 46.880792	
7.81704	 46.884194	
7.8503	 46.925400	
7.88357	 46.801074	
7.91683	 46.656172	
7.9501	 46.849064	
7.98336	 46.804065	
8.01662	 46.864545	
8.04989	 46.770628	
8.08315	 46.732924	
8.11642	 46.816663	
8.14968	 46.806006	
8.18294	 46.781262	
8.21621	 46.861724	
8.24947	 46.913339	
8.28274	 46.923183	
8.316	 46.948083	
8.34926	 46.920209	
8.38253	 46.941380	
8.41579	 46.896464	
8.44906	 46.893388	
8.48232	 46.934883	
8.51558	 46.896307	
8.54885	 46.840257	
8.58211	 46.866875	
8.61538	 46.900282	
8.64864	 46.876756	
8.6819	 46.879887	
8.71517	 46.928085	
8.74843	 46.900652	
8.7817	 46.820990	
8.81496	 46.846585	
8.84822	 46.919311	
8.88149	 46.897174	
8.91475	 46.870356	
8.94802	 46.856358	
8.98128	 46.913822	
9.01454	 46.844693	
9.04781	 46.857255	
9.08107	 46.729412	
9.11434	 46.790463	
9.1476	 46.794181	
9.18086	 46.791560	
9.21413	 46.814145	
9.24739	 46.764492	
9.28066	 46.689593	
9.31392	 46.787239	
9.34718	 46.719239	
9.38045	 46.635210	
9.41371	 46.769073	
9.44698	 46.807975	
9.48024	 46.885023	
9.5135	 46.736359	
9.54677	 46.761185	
9.58003	 46.841002	
9.6133	 46.887627	
9.64656	 46.775819	
9.67982	 46.827145	
9.71309	 46.769951	
9.74635	 46.700244	
9.77962	 46.781557	
9.81288	 46.702153	
9.84614	 46.713718	
9.87941	 46.646073	
9.91267	 46.644102	
9.94594	 46.673341	
9.9792	 46.698344	
10.0125	 46.740816	
10.0457	 46.865937	
10.079	 47.082612	
10.1123	 47.349910	
10.1455	 47.343611	
10.1788	 48.026532	
10.212	 48.099773	
10.2453	 48.682495	
10.2786	 48.948131	
10.3118	 49.379729	
10.3451	 49.658650	
10.3784	 49.864089	
10.4116	 50.144948	
10.4449	 50.153833	
10.4782	 50.114168	
10.5114	 50.309416	
10.5447	 50.471334	
10.578	 50.583566	
10.6112	 50.690955	
10.6445	 50.766130	
10.6777	 50.719023	
10.711	 50.915532	
10.7443	 50.999135	
10.7775	 51.071333	
10.8108	 51.279873	
10.8441	 51.254454	
10.8773	 51.403467	
10.9106	 51.472317	
10.9439	 51.513910	
10.9771	 51.517207	
11.0104	 51.541934	
11.0436	 51.565068	
